<?xml version="1.0" encoding="utf-8"?>
<!-- Generator: Adobe Illustrator 19.2.1, SVG Export Plug-In . SVG Version: 6.00 Build 0)  -->
<svg version="1.1" id="Layer_1" xmlns="http://www.w3.org/2000/svg" xmlns:xlink="http://www.w3.org/1999/xlink" x="0px" y="0px"
	 viewBox="0 0 52.3 52.3" style="enable-background:new 0 0 52.3 52.3;" xml:space="preserve">
<style type="text/css">
	.st0{fill:#5D89B4;}
	.st1{fill:#5D89B4;stroke:#FFFFFF;stroke-miterlimit:10;}
</style>
<g>
	<g>
		<path class="st0" d="M26.1,52.3C11.7,52.3,0,40.6,0,26.1C0,11.7,11.7,0,26.1,0s26.1,11.7,26.1,26.1C52.3,40.6,40.6,52.3,26.1,52.3
			z M26.1,3C13.4,3,3,13.4,3,26.1c0,12.8,10.4,23.1,23.1,23.1s23.1-10.4,23.1-23.1C49.3,13.4,38.9,3,26.1,3z"/>
	</g>
	<g>
		<g>
			<g>
				<path class="st0" d="M25.4,36.1L25.4,36.1L25.4,36.1C25.4,36.1,25.4,36.1,25.4,36.1c0-0.4-0.2-0.7-0.5-0.9
					c-1.7-1.2-6.5-0.7-9.1,0.2l-1.5,0.5l0.1-1.6c0.4-4.5,0.1-9.9-1-15.6l-0.2-1l1.2-0.2c4.6-0.9,9.4-1.8,11.6,0.1
					c0.1,0.1,0.2,0.2,0.3,0.3c0.1-0.1,0.1-0.1,0.2-0.2c2-1.7,5.7-1.1,9.7-0.5c0.5,0.1,1.1,0.2,1.6,0.2l1.2,0.2l-0.4,1.1
					c-1.8,5.8-1.2,13-0.9,15.8l0.2,1.5l-1.5-0.4c-3.4-1-7.6-1.5-8.9-0.4c-0.3,0.2-0.4,0.5-0.4,0.9v0l0,0L25.4,36.1z M21.5,32.5
					c1.7,0,3.4,0.3,4.5,1.1c0.1,0.1,0.2,0.2,0.3,0.3c0.1-0.1,0.1-0.1,0.2-0.2c2.1-1.6,6.8-0.8,9.2-0.3c-0.3-3.3-0.6-9,0.8-14.1
					c-0.2,0-0.3-0.1-0.5-0.1c-3.2-0.5-7-1-8.3,0c-0.2,0.2-0.8,0.6-0.9,1.5l-1,0c0-0.9-0.7-1.4-0.9-1.6c-1.5-1.1-5.8-0.4-9.4,0.3
					c0.9,4.9,1.2,9.6,1,13.7C18,32.7,19.8,32.5,21.5,32.5z"/>
			</g>
		</g>
		<g>
			<path class="st1" d="M14.4,19.8"/>
		</g>
		<g>
			<path class="st1" d="M38.2,20"/>
		</g>
		<g>
			<path class="st0" d="M26.3,39C26.3,39,26.3,39,26.3,39c-1.3,0-2.1-1-2.4-1.5l-11.5,0.9L11.6,19l2-0.1l0,1l-1,0l0.8,17.4l11.2-0.9
				l0.1,0.3c0,0,0.5,1.2,1.6,1.2c0,0,0,0,0,0c1.2,0,1.5-0.9,1.6-1l0.1-0.4l0.4,0L39,37.3l0.6-17.1l-1.7,0l0-1l2.7,0.1L40,38.4
				l-11.3-0.7C28.4,38.2,27.6,39,26.3,39z"/>
		</g>
		<g>
			<rect x="25.9" y="19.1" class="st0" width="1" height="12"/>
		</g>
	</g>
</g>
</svg>
