<?xml version="1.0" encoding="utf-8"?>
<!-- Generator: Adobe Illustrator 21.1.0, SVG Export Plug-In . SVG Version: 6.00 Build 0)  -->
<svg version="1.1" id="Слой_1" xmlns="http://www.w3.org/2000/svg" xmlns:xlink="http://www.w3.org/1999/xlink" x="0px" y="0px"
	 viewBox="0 0 180 22.1" enable-background="new 0 0 180 22.1" xml:space="preserve">
<g>
	<g>
		<path fill="#79797B" d="M0,9.8C0,7,2.3,4.7,5.1,4.7c2.8,0,5.1,2.3,5.1,5.1c0,0.3,0,0.6-0.1,0.9c-0.8-0.3-1.7-0.5-2.6-0.5
			c-2.5,0-4.6,1.3-5.8,3.3C0.6,12.5,0,11.2,0,9.8z M8.5,17c0-1.6,0.6-3.2,1.5-4.3c-0.8-0.5-1.7-0.8-2.7-0.8c-2.8,0-5.1,2.3-5.1,5.1
			c0,2.8,2.3,5.1,5.1,5.1c1,0,1.9-0.3,2.7-0.8C9.1,20.2,8.5,18.7,8.5,17z M17.7,16.6c-2.5,0-4.6-1.3-5.8-3.3c-1,0.9-1.6,2.2-1.6,3.7
			c0,2.8,2.3,5.1,5.1,5.1c2.8,0,5.1-2.3,5.1-5.1c0-0.3,0-0.6-0.1-0.9C19.6,16.4,18.7,16.6,17.7,16.6z M18.2,4.7c0,0.1,0,0.3,0,0.4
			c0,3.2-2.2,5.9-5.2,6.6c0.8,1.8,2.6,3.1,4.7,3.1c2.8,0,5.1-2.3,5.1-5.1C22.8,7.1,20.8,5,18.2,4.7z M11.4,0C9.3,0,7.5,1.3,6.7,3.1
			c3,0.7,5.2,3.4,5.2,6.6c0,0.1,0,0.3,0,0.4c2.6-0.3,4.6-2.4,4.6-5.1C16.5,2.3,14.2,0,11.4,0z"/>
		<g>
			<path fill="#79797B" d="M31.8,5.4c-0.2,0-0.5,0.1-0.6,0.2C31.2,5.6,31,5.9,31,6.4c0,0.4,0,3,0,5.5c0,1.9,0,3.3,0,3.8
				c0,1.3,0.1,1.7,1.3,2c0.4,0.1,0.6,0.3,0.6,0.4c0,0.2-0.4,0.3-0.7,0.3c-0.5,0-1.8-0.1-2.7-0.1c-0.6,0-1.6,0.1-2.3,0.1
				c-0.5,0-0.8-0.1-0.8-0.3c0-0.1,0.3-0.3,0.5-0.4c1-0.3,1.3-0.6,1.4-1.5c0.1-0.8,0.1-2.2,0.1-3.3c0-0.7,0-5.4,0-6
				c-0.1-0.7-0.2-1.1-1.3-1.2c-0.3,0-0.5-0.2-0.5-0.3c0-0.2,0.2-0.3,0.4-0.3c0.1,0,0.5,0,0.7,0c1.4,0,3.1-0.2,4-0.2
				c2,0,3.4,0.4,4.3,1.2c1,1,1.2,2.1,1.2,2.9c0,1.7-0.8,2.7-1.4,3.2c-0.6,0.5-1.7,1-2.5,1c-0.2,0-0.8,0-1.1-0.1
				c-0.3-0.1-0.4-0.2-0.4-0.4c0-0.1,0.1-0.2,0.3-0.2c0.2,0,0.2,0,0.3,0c0.9,0,2.2-1.1,2.2-3.3C34.7,7.2,33.5,5.4,31.8,5.4z"/>
			<path fill="#79797B" d="M53.4,11.3c0,2.8-1.2,4.6-2.7,5.8c-1.2,0.9-3,1.5-4.6,1.5c-2.2,0-4.2-0.8-5.5-2.3
				c-1.1-1.2-1.8-2.9-1.8-4.8c0-2.6,1.1-4.2,2.7-5.5c1-0.7,2.7-1.5,4.5-1.5C50.7,4.5,53.4,8,53.4,11.3z M43.1,6.3
				C42.4,7,41.6,8.5,41.6,11c0,3.3,2,6.8,5.1,6.8c1.2,0,1.9-0.6,2.2-0.9c0.9-0.9,1.6-2.7,1.6-5c0-1.7-0.7-4.2-2.2-5.6
				c-0.7-0.6-1.9-1.1-2.8-1.1C44.6,5.2,43.6,5.8,43.1,6.3z"/>
			<path fill="#79797B" d="M66,4.8c0.5,0.1,1,0.3,1.5,0.3c0.1,0,0.3,0.3,0.3,0.6c0,0.6,0.1,1.3,0.1,1.9c0,0.4-0.1,0.8-0.4,0.8
				c-0.1,0-0.3-0.3-0.4-0.6c-0.2-0.7-0.5-1.2-0.9-1.5c-0.9-0.8-2-1.2-3.1-1.2c-3.4,0-4.9,2.7-4.9,5.9c0,1.4,0.3,2.6,0.7,3.6
				c1.2,2.3,3.1,3.1,4.7,3.1c0.3,0,1.3,0,2.1-0.5c0.8-0.4,1.4-1.1,1.8-1.9c0.3-0.5,0.4-0.7,0.6-0.7c0.2,0,0.2,0.5,0.2,0.8
				c-0.1,0.5-0.4,1.5-0.6,1.8c-0.1,0.2-0.4,0.5-0.8,0.7c-0.3,0.1-1.8,0.6-3.7,0.6c-3.1,0-5.3-1.4-6.2-2.4c-0.8-0.9-1.8-2.4-1.8-4.8
				c0-2.6,1.4-4.4,2.3-5.1c1.8-1.5,4-1.9,5.7-1.9C64.3,4.5,65.3,4.6,66,4.8z"/>
			<path fill="#79797B" d="M70.4,4.7c0.5,0,1.5,0.1,2.2,0.1c0.6,0,1.9-0.1,2.4-0.1c0.4,0,0.7,0.1,0.7,0.3c0,0.2-0.3,0.3-0.5,0.4
				c-0.8,0.2-1,0.3-1.1,1.3c0,0.8,0,3.1,0,4.1c0,0.1,0.1,0.2,0.1,0.2c1.1-0.1,1.8-0.4,2.6-1.7c0.6-1,1-1.8,1.5-2.6
				c0.8-1.4,1.9-2.3,3-2.3c0.7,0,1.1,0.3,1.1,0.9c0,0.2-0.1,0.5-0.3,0.7c-0.2,0.2-0.4,0.2-0.6,0.2c-0.2,0-0.5-0.1-0.7-0.1
				c-1.2,0-1.8,0.9-2.4,1.8c-0.6,0.9-1.1,1.7-1.4,2.1c0,0,0,0.1,0,0.2c0.5,0.9,2.4,3.9,3.3,5.1c1.4,1.8,1.9,2,3.1,2.2
				c0.1,0,0.3,0.1,0.3,0.2c0,0.2-0.1,0.3-0.4,0.4c-0.3,0.1-0.8,0.1-1.3,0.1c-1.9,0-2.8-0.3-3.6-1.4c-0.8-1-1.7-2.3-2.6-3.9
				c-0.7-1.1-1-1.5-1.7-1.5c-0.1,0-0.1,0.1-0.1,0.3c0,1.7,0.1,3.9,0.1,4.7c0,0.4,0.1,0.7,1.1,1c0.4,0.1,0.6,0.3,0.6,0.4
				c0,0.2-0.4,0.3-0.7,0.3c-0.5,0-1.9,0-2.6,0c-0.7,0-1.7,0.1-2.4,0.1c-0.3,0-0.6-0.2-0.6-0.3c0-0.2,0.2-0.3,0.6-0.4
				c1-0.2,1.2-0.5,1.3-1.8c0-1.1,0-2.5,0-4.8c0-2.5,0-3.3-0.1-4c0-1-0.2-1.3-1-1.5c-0.6-0.1-0.7-0.3-0.7-0.4
				C69.7,4.8,70.1,4.7,70.4,4.7z"/>
			<path fill="#79797B" d="M98,11.3c0,2.8-1.2,4.6-2.7,5.8c-1.2,0.9-3,1.5-4.6,1.5c-2.2,0-4.2-0.8-5.5-2.3c-1.1-1.2-1.8-2.9-1.8-4.8
				c0-2.6,1.1-4.2,2.7-5.5c1-0.7,2.7-1.5,4.5-1.5C95.3,4.5,98,8,98,11.3z M87.7,6.3C87,7,86.2,8.5,86.2,11c0,3.3,2,6.8,5.1,6.8
				c1.2,0,1.9-0.6,2.2-0.9c0.9-0.9,1.6-2.7,1.6-5c0-1.7-0.7-4.2-2.2-5.6c-0.7-0.6-1.9-1.1-2.8-1.1C89.2,5.2,88.2,5.8,87.7,6.3z"/>
			<path fill="#79797B" d="M103.7,10.9c1.4,0,4.2-0.1,6.4-0.1c0.1,0,0.2-0.2,0.2-0.5c0-0.3,0-2.7,0-3.6c-0.1-0.8-0.2-1-1-1.2
				c-0.3-0.1-0.6-0.2-0.6-0.4c0-0.1,0.2-0.3,0.7-0.3c0.3,0,1.8,0.1,2.4,0.1c0.7,0,2-0.1,2.3-0.1c0.4,0,0.7,0.1,0.7,0.3
				c0,0.2-0.2,0.3-0.7,0.5c-0.8,0.2-0.9,0.5-0.9,1.1c-0.1,1-0.2,2.9-0.2,5.9c0,2.1,0.1,3.2,0.1,3.9c0,0.8,0.2,0.9,1.1,1.2
				c0.4,0.1,0.6,0.3,0.6,0.4c0,0.2-0.3,0.3-0.7,0.3c-0.4,0-1.5-0.1-2.1-0.1c-0.5,0-2.2,0.1-2.6,0.1c-0.5,0-0.7-0.1-0.7-0.3
				c0-0.2,0.3-0.4,0.6-0.4c1-0.3,1.1-0.4,1.2-2c0.1-0.8,0.1-2.8,0-3.4c0-0.2-0.1-0.3-0.2-0.3c-1.7,0-6-0.1-6.4,0
				c-0.1,0-0.3,0.2-0.3,0.3c0,0.8,0,3,0,3.7c0,1,0.1,1.3,1,1.6c0.4,0.1,0.7,0.3,0.7,0.5c0,0.2-0.4,0.3-0.7,0.3
				c-0.1,0-1.9-0.1-2.6-0.1c-0.5,0-1.6,0.1-2.3,0.1c-0.5,0-0.7-0.1-0.7-0.3c0-0.2,0.2-0.4,0.6-0.5c0.9-0.3,1.1-0.5,1.2-1.4
				c0.1-0.8,0.2-4,0.2-6.9c0-0.6,0-1.8,0-2.6c0-0.7-0.2-0.9-0.9-1.1c-0.5-0.1-0.7-0.3-0.7-0.5c0-0.2,0.3-0.3,0.7-0.3
				c0.6,0,1.7,0.1,2.3,0.1c0.9,0,1.8-0.1,2.3-0.1c0.4,0,0.7,0.1,0.7,0.3c0,0.2-0.3,0.4-0.7,0.5c-0.9,0.2-1,0.6-1,1.5
				c0,0.8-0.1,3.2-0.1,3.6C103.5,10.8,103.5,10.9,103.7,10.9z"/>
			<path fill="#79797B" d="M126.2,4.7c0.1,0,0.3,0.1,0.3,0.2c0,0.6,0,2,0,2.7c0,0.3-0.1,0.7-0.3,0.7s-0.4-0.1-0.5-0.6
				c-0.3-0.9-0.7-1.9-1.4-2c-0.7-0.1-2.2-0.1-2.7,0c-0.4,0-0.5,0.1-0.5,0.3c-0.1,1.1-0.1,3-0.1,4.4c0,1.5,0,4.3,0,5.8
				c0,0.9,0.4,1.1,1.3,1.4c0.3,0.1,0.5,0.3,0.5,0.4s-0.3,0.3-0.6,0.3c-0.5,0-1.8-0.1-2.6-0.1c-0.8,0-2.1,0.1-2.5,0.1
				c-0.3,0-0.6-0.2-0.6-0.3c0-0.2,0.3-0.4,0.6-0.5c0.9-0.2,1-0.6,1-1.1c0.1-0.7,0.2-1.9,0.2-6.1c0-2,0-3.3,0-3.8c0-0.7-0.2-1-1-1.1
				c-0.5-0.1-0.6-0.3-0.6-0.5c0-0.1,0.3-0.3,0.6-0.3c0.9,0,1.8,0.1,2.6,0.1c0.9,0,1.9,0,2.7,0C125.5,4.9,126,4.8,126.2,4.7z"/>
			<path fill="#79797B" d="M133.4,5.4c-0.2,0-0.5,0.1-0.6,0.2c-0.1,0.1-0.2,0.3-0.2,0.8c0,0.4,0,3,0,5.5c0,1.9,0,3.3,0,3.8
				c0,1.3,0.1,1.7,1.3,2c0.4,0.1,0.6,0.3,0.6,0.4c0,0.2-0.4,0.3-0.7,0.3c-0.6,0-1.8-0.1-2.7-0.1c-0.6,0-1.6,0.1-2.3,0.1
				c-0.5,0-0.8-0.1-0.8-0.3c0-0.1,0.3-0.3,0.5-0.4c1-0.3,1.3-0.6,1.4-1.5c0.1-0.8,0.1-2.2,0.1-3.3c0-0.7,0-5.4,0-6
				c-0.1-0.7-0.2-1.1-1.3-1.2c-0.3,0-0.5-0.2-0.5-0.3c0-0.2,0.2-0.3,0.4-0.3c0.1,0,0.5,0,0.7,0c1.4,0,3.1-0.2,4-0.2
				c2,0,3.4,0.4,4.3,1.2c1,1,1.2,2.1,1.2,2.9c0,1.7-0.8,2.7-1.4,3.2c-0.5,0.5-1.7,1-2.5,1c-0.2,0-0.8,0-1.1-0.1
				c-0.3-0.1-0.4-0.2-0.4-0.4c0-0.1,0.1-0.2,0.3-0.2c0.2,0,0.2,0,0.3,0c0.9,0,2.2-1.1,2.2-3.3C136.3,7.2,135.2,5.4,133.4,5.4z"/>
			<path fill="#79797B" d="M148.1,4.9c0.7,0,1.6-0.1,1.9-0.1c0.1,0,0.2,0.1,0.3,0.3c0,0.4,0,1.8,0,2.3c0,0.3-0.1,0.6-0.3,0.6
				c-0.2,0-0.4-0.3-0.4-0.5c-0.3-1.2-0.9-1.5-1.4-1.6c-0.4-0.1-1.3-0.1-2.9-0.1c-0.1,0-0.3,0.1-0.3,0.6c0,0.5-0.1,3.5-0.1,4.6
				c0,0.1,0.1,0.2,0.2,0.2h1.7c1.5,0,1.5-0.1,1.9-1c0.1-0.3,0.3-0.6,0.5-0.6c0.2,0,0.2,0.4,0.2,0.6c0,0.6-0.1,1-0.1,1.5
				c0,0.6,0,0.9,0.1,1.4c0,0.4-0.1,0.6-0.3,0.6c-0.2,0-0.3-0.3-0.4-0.5c-0.3-0.9-0.6-1.1-1.4-1.1c-0.7-0.1-1.5-0.1-2.1-0.1
				c-0.1,0-0.3,0.2-0.3,0.3c-0.1,0.6-0.1,2.2,0,2.9c0,0.5,0,1.3,0.1,1.7c0.1,0.2,0.3,0.5,0.5,0.5c0.3,0.1,1,0.1,1.7,0.1
				c0.6,0,1.4,0,1.9-0.2c0.6-0.2,1.2-0.7,1.7-1.6c0.3-0.5,0.5-0.7,0.7-0.7c0.2,0,0.2,0.4,0.2,0.6c0,0.2-0.6,2.1-0.8,2.5
				c-0.1,0.1-0.4,0.3-0.5,0.3c-0.2,0-5.5-0.1-7-0.1c-1.4,0-1.7,0.1-2.4,0.1c-0.4,0-0.7-0.1-0.7-0.3c0-0.2,0.3-0.3,0.6-0.4
				c1.1-0.3,1.4-0.5,1.4-1.6c0.1-0.9,0.2-2.5,0.2-5.1c0-2.5,0-3.5,0-4.1c0-0.8-0.2-1.2-1.1-1.4c-0.4-0.1-0.7-0.2-0.7-0.4
				c0-0.2,0.4-0.3,0.7-0.3c1,0,2.7,0.1,3.8,0.1H148.1z"/>
			<path fill="#79797B" d="M163.3,4.8c0.5,0.1,1,0.3,1.5,0.3c0.1,0,0.3,0.3,0.3,0.6c0,0.6,0.1,1.3,0.1,1.9c0,0.4-0.1,0.8-0.4,0.8
				c-0.1,0-0.3-0.3-0.4-0.6c-0.2-0.7-0.5-1.2-0.9-1.5c-0.9-0.8-2-1.2-3.1-1.2c-3.4,0-4.9,2.7-4.9,5.9c0,1.4,0.3,2.6,0.7,3.6
				c1.2,2.3,3.1,3.1,4.7,3.1c0.3,0,1.3,0,2.1-0.5c0.8-0.4,1.4-1.1,1.8-1.9c0.3-0.5,0.4-0.7,0.6-0.7c0.2,0,0.2,0.5,0.2,0.8
				c-0.1,0.5-0.4,1.5-0.6,1.8c-0.1,0.2-0.4,0.5-0.8,0.7c-0.3,0.1-1.8,0.6-3.7,0.6c-3.1,0-5.3-1.4-6.2-2.4c-0.8-0.9-1.8-2.4-1.8-4.8
				c0-2.6,1.4-4.4,2.3-5.1c1.8-1.5,4-1.9,5.7-1.9C161.5,4.5,162.5,4.6,163.3,4.8z"/>
			<path fill="#79797B" d="M177.7,4.8c0.5,0.1,1,0.3,1.5,0.3c0.1,0,0.3,0.3,0.3,0.6c0,0.6,0.1,1.3,0.1,1.9c0,0.4-0.1,0.8-0.4,0.8
				c-0.1,0-0.3-0.3-0.4-0.6c-0.2-0.7-0.5-1.2-0.9-1.5c-0.9-0.8-2-1.2-3.1-1.2c-3.4,0-4.9,2.7-4.9,5.9c0,1.4,0.3,2.6,0.7,3.6
				c1.2,2.3,3.1,3.1,4.7,3.1c0.3,0,1.3,0,2-0.5c0.8-0.4,1.4-1.1,1.8-1.9c0.3-0.5,0.4-0.7,0.6-0.7c0.2,0,0.2,0.5,0.2,0.8
				c-0.1,0.5-0.4,1.5-0.6,1.8c-0.1,0.2-0.4,0.5-0.8,0.7c-0.3,0.1-1.8,0.6-3.7,0.6c-3.1,0-5.3-1.4-6.2-2.4c-0.8-0.9-1.8-2.4-1.8-4.8
				c0-2.6,1.4-4.4,2.3-5.1c1.8-1.5,4-1.9,5.7-1.9C175.9,4.5,176.9,4.6,177.7,4.8z"/>
		</g>
	</g>
</g>
</svg>
