<?xml version="1.0" encoding="utf-8"?>
<!-- Generator: Adobe Illustrator 19.2.1, SVG Export Plug-In . SVG Version: 6.00 Build 0)  -->
<svg version="1.1" id="Layer_1" xmlns="http://www.w3.org/2000/svg" xmlns:xlink="http://www.w3.org/1999/xlink" x="0px" y="0px"
	 viewBox="0 0 52.3 52.3" style="enable-background:new 0 0 52.3 52.3;" xml:space="preserve">
<style type="text/css">
	.st0{fill:none;stroke:#5D89B4;stroke-width:3;stroke-miterlimit:10;}
	.st1{fill:none;stroke:#5D89B4;stroke-miterlimit:10;}
	.st2{fill:none;stroke:#5D89B4;stroke-width:2;stroke-miterlimit:10;}
</style>
<g>
	<circle class="st0" cx="26.1" cy="26.1" r="24.6"/>
	<path class="st1" d="M12.1,46.4c7.7-0.4,20.6-0.8,28.3-0.6"/>
	<path class="st1" d="M36.2,34.7c1.1-0.8,1.6-2.4,1.8-3.7c0.4-2,0-3.4-1-5.1c-1.1-1.7-3.1-3.8-5.6-5.6"/>
	<path class="st1" d="M25.2,19.3c2.7-4.4,5.4-8.8,8.3-13.1C34.7,7,36,7.8,37.3,8.6c0.2,0.1,0.3,0.2,0.4,0.4c0.1,0.2,0,0.4-0.1,0.6
		c-0.4,1-1,1.9-1.6,2.8c-2.5,3.9-5.1,7.8-7.6,11.7"/>
	<path class="st1" d="M12,27.1c0.3,0.8,0.2,0.8,0.6,1c1.5,1,3.2,1.6,4.9,2.2c3.5,1.4,7.3,3.1,10.5,5.2"/>
	<path class="st2" d="M12.9,46.2c-0.4-0.5-0.1-3,0.3-3.5c0.4-0.4,1-0.6,1.6-0.7c3.4-0.6,6.5-0.6,10.2-0.9c0.1,0,0.2-0.1,0.2-0.2
		c0-0.1,0-0.2,0-0.2c-0.1-0.7-0.3-1.4-0.4-2.1"/>
	<path class="st2" d="M30.6,32.5c0.2-1.4,1.7-3.1,1.4-4.4c-0.2-0.8-0.7-1.5-1.2-2.1c-0.7-0.8-2.1-2.1-3-2.7"/>
	<path class="st1" d="M22,28.3c0.7-1,1.4-2,1.9-3c-0.1,0.1-0.1,0.2-0.2,0.3"/>
	<path class="st2" d="M22.5,15.6c1.9,2.8,3.8,5.6,5.7,8.4c-0.1-0.1-0.1-0.3-0.2-0.4"/>
	<path class="st1" d="M16.5,19c1.4-0.1,3.2-0.4,4.4-0.6"/>
	<path class="st1" d="M25.6,25.3c-2.1-0.5-4.1-1.2-6-2c-0.1-0.1-0.3-0.1-0.3-0.2c-0.1-0.2-0.1-0.4-0.1-0.5c0.1-0.7,0.4-6.7,0.5-7.4"
		/>
	<path class="st1" d="M19.7,29.1c0.3,0.7,1,1.2,1.7,1.4c0.7,0.2,1.5,0.3,2.3,0.3c0.5,0,1,0,1.4,0.3c0.7,0.5,0.7,1.4,0.7,2.3"/>
	<path class="st1" d="M31.8,10.7c1.1,0.7,2.2,1.4,3.2,2.1"/>
	<path class="st2" d="M25,39.1c-0.1-0.5-0.2-1,0-1.4c0.2-0.5,0.7-0.8,1.2-0.9c0.6-0.2,0.8-0.4,1.4-0.5c0.1,0,0.2,0.3,0.2,0.2"/>
	<path class="st1" d="M36,37.8c1.8,2,3.6,4,5.5,6.1c0,0,0.1,0.1,0.1,0.1c0,0,0-0.1,0-0.1"/>
	<circle class="st2" cx="32.1" cy="35.9" r="4.2"/>
</g>
</svg>
