<?xml version="1.0" encoding="utf-8"?>
<!-- Generator: Adobe Illustrator 19.2.1, SVG Export Plug-In . SVG Version: 6.00 Build 0)  -->
<svg version="1.1" id="Layer_1" xmlns="http://www.w3.org/2000/svg" xmlns:xlink="http://www.w3.org/1999/xlink" x="0px" y="0px"
	 viewBox="0 0 52.3 52.3" style="enable-background:new 0 0 52.3 52.3;" xml:space="preserve">
<style type="text/css">
	.st0{fill:#454E75;}
</style>
<g>
	<g>
		<path class="st0" d="M26.1,52.3C11.7,52.3,0,40.6,0,26.1C0,11.7,11.7,0,26.1,0s26.1,11.7,26.1,26.1C52.3,40.6,40.6,52.3,26.1,52.3
			z M26.1,3C13.4,3,3,13.4,3,26.1c0,12.8,10.4,23.1,23.1,23.1c12.8,0,23.1-10.4,23.1-23.1C49.3,13.4,38.9,3,26.1,3z"/>
	</g>
	<g>
		<path class="st0" d="M38.4,35.7l-1.9-7.1C35,23,33.5,17.2,33,11.3c-0.8,0.1-1.6,0.2-2.3,0.3c0,2.6,0.1,5.2,0.1,7.8
			c0,2.9,0.1,5.9,0.1,8.8v1.9L29.3,29c-2.2-1.6-4.5-3.3-7.1-5.6c0,1.3,0.1,2.6,0.1,3.9l0.1,3.4l-10.6-7.6c0.2,1.5,0.4,3.1,0.5,4.6
			l0.1,2L1.9,22.6L3,21l7.1,4.9c-0.2-1.6-0.4-3.2-0.8-4.7l-0.6-2.6l11.5,8.3c0-1.9-0.1-3.9-0.2-5.6l-0.2-2.5l1.9,1.7
			c2.7,2.4,5,4.2,7.1,5.9c0-2.2-0.1-4.5-0.1-6.8c0-2.9-0.1-5.8-0.1-8.7v-0.8l0.8-0.2c1.2-0.3,2.4-0.4,3.6-0.5c0.2,0,0.8-0.1,1.3,0.3
			c0.5,0.4,0.6,1.1,0.6,1.3c0.5,5.8,2,11.5,3.5,17.1l1.9,7.1L38.4,35.7z"/>
	</g>
	<g>
		
			<rect x="25.1" y="12.3" transform="matrix(1.433744e-003 -1 1 1.433744e-003 -9.7284 61.777)" class="st0" width="2" height="47"/>
	</g>
	<g>
		<path class="st0" d="M11.4,45.4l-0.8-0.6c2.1-2.7,4.9-4.6,7.9-5.6l0.3,1C16,41.1,13.5,42.9,11.4,45.4z"/>
	</g>
	<g>
		<path class="st0" d="M15.8,48.1l-0.7-0.7c3.9-4,9.1-7,15.5-8.8l0.3,1C24.7,41.3,19.6,44.2,15.8,48.1z"/>
	</g>
	<g>
		<path class="st0" d="M21.8,50.1l-0.7-0.7c4.3-4,9.6-6.8,15.3-8.2l0.2,1C31.1,43.5,26,46.2,21.8,50.1z"/>
	</g>
</g>
</svg>
