<?xml version="1.0" encoding="utf-8"?>
<!-- Generator: Adobe Illustrator 19.2.1, SVG Export Plug-In . SVG Version: 6.00 Build 0)  -->
<svg version="1.1" id="Layer_1" xmlns="http://www.w3.org/2000/svg" xmlns:xlink="http://www.w3.org/1999/xlink" x="0px" y="0px"
	 viewBox="0 0 52.3 52.3" style="enable-background:new 0 0 52.3 52.3;" xml:space="preserve">
<style type="text/css">
	.st0{fill:#A41F35;}
	.st1{fill:#A41F35;stroke:#FFFFFF;stroke-width:2;stroke-linejoin:bevel;stroke-miterlimit:10;}
	.st2{fill:#A41F35;stroke:#FFFFFF;stroke-linejoin:bevel;stroke-miterlimit:10;}
</style>
<g>
	<g>
		<path class="st0" d="M26.1,52.3C11.7,52.3,0,40.6,0,26.1C0,11.7,11.7,0,26.1,0c14.4,0,26.1,11.7,26.1,26.1
			C52.3,40.6,40.6,52.3,26.1,52.3z M26.1,3C13.4,3,3,13.4,3,26.1c0,12.8,10.4,23.1,23.1,23.1c12.8,0,23.1-10.4,23.1-23.1
			C49.3,13.4,38.9,3,26.1,3z"/>
	</g>
	<g>
		<path class="st1" d="M25.4,7.1"/>
	</g>
	<g>
		<path class="st0" d="M8.9,44.4c0-2.2,0-4.4,0.1-6.6c0-1.2,0.1-2.9,1.4-4.3c1.2-1.2,3-1.8,4.7-2.4c1.6-0.5,3.2-1.1,4-2
			c1.2-1.3,0.4-3-1-5.5c-0.5-0.9-0.9-1.7-1.2-2.5c-1.4-4.2-0.9-8.4,1.5-11.1c1.8-2,4.4-3.1,7.1-3.1l-0.1,2c-2-0.1-4.2,0.8-5.5,2.4
			c-1.9,2.2-2.3,5.6-1.1,9.1c0.2,0.6,0.6,1.4,1.1,2.2c1.2,2.3,2.9,5.3,0.7,7.8c-1.1,1.3-3,1.9-4.8,2.5c-1.5,0.5-3.1,1.1-3.9,1.9
			c-0.7,0.8-0.8,1.7-0.9,3c-0.1,2.1-0.1,4.3-0.1,6.5L8.9,44.4z"/>
	</g>
	<g>
		<path class="st0" d="M42.1,44.4l-2,0c0-2.2,0-4.3-0.1-6.5c0-1.2-0.1-2.2-0.9-3c-0.8-0.9-2.4-1.4-3.9-1.9c-1.8-0.6-3.7-1.3-4.8-2.5
			c-2.2-2.4-0.5-5.5,0.7-7.8c0.4-0.8,0.8-1.6,1.1-2.2c1.2-3.5,0.8-6.9-1.1-9.1c-1.4-1.5-3.5-2.5-5.6-2.4l-0.1-2
			c2.7-0.1,5.4,1.1,7.1,3.1c2.4,2.7,3,6.8,1.5,11.1c-0.3,0.8-0.7,1.6-1.2,2.5c-1.3,2.5-2.1,4.2-1,5.5c0.8,0.9,2.4,1.4,4,2
			c1.8,0.6,3.6,1.2,4.7,2.4c1.3,1.4,1.4,3.1,1.4,4.3C42,40,42.1,42.2,42.1,44.4z"/>
	</g>
	<g>
		<path class="st0" d="M37.9,32.3l-0.8-0.5c0.3-0.5,0.8-0.9,1.4-1.2c0.6-0.3,1.3-0.5,2-0.7c0.5-0.1,1-0.3,1.4-0.5
			c0.4-0.2,0.6-0.3,0.7-0.4c0.1-0.2-0.1-0.5-0.3-0.8c-1.7-2.6-2.3-5.2-1.9-7.6c0.4-2,2.2-4.1,5-4c1.8,0,3.2,0.9,4.2,2.5l-0.9,0.5
			c-0.4-0.7-1.5-1.9-3.4-2c0,0-0.1,0-0.1,0c-2.4,0-3.6,1.9-3.9,3.2c-0.4,2.1,0.2,4.5,1.7,6.9c0.3,0.4,0.8,1.2,0.3,1.9
			c-0.3,0.4-0.8,0.6-1.1,0.8c-0.5,0.2-1,0.4-1.5,0.5c-0.7,0.2-1.3,0.4-1.8,0.6C38.5,31.7,38.1,32,37.9,32.3z"/>
	</g>
	<g>
		<path class="st2" d="M37.5,31"/>
	</g>
	<g>
		<path class="st0" d="M14.7,31.8c-1.5-1.5-3.3-2.3-5.2-3.2c-0.4-0.2-0.7-0.3-1.1-0.5c-0.2-0.1-0.4-0.2-0.6-0.4
			c-0.4-0.4-0.5-1-0.2-1.6c0.1-0.4,0.3-0.8,0.4-1.2c0.4-1.1,0.8-2.1,0.8-3.3c0-1.3-0.4-2.5-1.1-3.2c-0.6-0.7-1.6-1.1-2.4-1
			c-0.6,0.1-1.1,0.5-1.7,0.9c-0.3,0.2-0.6,0.4-0.9,0.6l-0.5-0.8c0.3-0.2,0.5-0.4,0.8-0.6c0.6-0.5,1.3-1,2.1-1.1
			c1.2-0.2,2.4,0.4,3.3,1.4c1.1,1.2,1.3,2.8,1.3,3.9c0,1.4-0.4,2.5-0.9,3.7c-0.1,0.4-0.3,0.7-0.4,1.1c-0.1,0.2-0.1,0.5,0,0.6
			c0.1,0.1,0.2,0.1,0.3,0.2c0.4,0.2,0.7,0.3,1.1,0.5c1.9,0.9,3.9,1.8,5.5,3.4L14.7,31.8z"/>
	</g>
</g>
</svg>
