<?xml version="1.0" encoding="utf-8"?>
<!-- Generator: Adobe Illustrator 19.2.1, SVG Export Plug-In . SVG Version: 6.00 Build 0)  -->
<svg version="1.1" id="Layer_1" xmlns="http://www.w3.org/2000/svg" xmlns:xlink="http://www.w3.org/1999/xlink" x="0px" y="0px"
	 viewBox="0 0 52.3 52.3" style="enable-background:new 0 0 52.3 52.3;" xml:space="preserve">
<style type="text/css">
	.st0{fill:#A41F35;}
</style>
<g id="XMLID_3_">
	<g>
		<path class="st0" d="M26.1,52.3c-14.3,0-26-11.7-26.1-26C-0.1,11.9,11.6,0.1,26,0h0.2c14.3,0,26,11.7,26.1,26
			c0.1,14.4-11.6,26.2-26,26.3H26.1z M26.1,3H26C13.2,3.1,2.9,13.5,3,26.3c0.1,12.7,10.5,23,23.1,23h0.1C39,49.2,49.4,38.8,49.3,26
			C49.2,13.3,38.8,3,26.1,3z"/>
	</g>
	<g>
		<path class="st0" d="M25.1,49.7l-2-0.2c0.3-3.5-0.7-7.1-3-9.9c-1.1-1.4-2.5-2.6-4-3.8c-1.9-1.6-3.8-3.2-5.2-5.4
			c-0.1-0.2-0.3-0.4-0.4-0.7c-0.4-0.7-0.8-1.4-1.4-1.9c-0.4,0.9-0.2,2,0.2,2.9c0.4,0.9,1,1.7,1.6,2.5c0.4,0.5,0.7,1,1.1,1.5
			c0.9,1.4,1.8,3.5,1.1,5.6l-1.9-0.6c0.5-1.4-0.4-3-0.9-3.8c-0.3-0.5-0.7-1-1-1.4c-0.7-0.9-1.3-1.8-1.8-2.8c-0.7-1.6-1-4.1,0.5-5.8
			l1-0.3c1.6,0.5,2.4,1.9,3.1,3.1c0.1,0.2,0.3,0.4,0.4,0.6c1.2,1.9,2.9,3.4,4.8,4.9c1.5,1.2,3,2.5,4.2,4.1
			C24.2,41.5,25.5,45.7,25.1,49.7z"/>
	</g>
	<g>
		<path class="st0" d="M26.9,50.8c-0.7-1.8-0.7-4.1,0-6.7c0.6-2.1,1.4-3.8,2.6-5c1.1-1.1,2.4-1.8,3.7-2.5c0.9-0.5,1.7-0.9,2.5-1.5
			c1.6-1.2,2.6-2.9,3.6-4.6c0.1-0.2,0.2-0.4,0.3-0.7c0.9-2.2,1.8-3.8,3.1-4c0.4,0,1,0,1.6,0.8c0.8,1.2,1.2,2.8,1,4.5
			c-0.1,1.3-0.5,2.6-1.3,4.1c-0.9,1.9-2.2,3.7-3.7,5.3L38.8,39c1.3-1.4,2.5-3,3.3-4.8c0.6-1.3,1-2.4,1.1-3.4
			c0.1-1.1-0.1-2.1-0.5-2.9c-0.5,0.6-1.1,2-1.3,2.6c-0.2,0.4-0.3,0.7-0.4,0.9c-1,1.8-2.2,3.8-4.1,5.2c-0.9,0.7-1.8,1.2-2.8,1.7
			c-1.2,0.6-2.3,1.3-3.2,2.2c-0.9,0.9-1.6,2.3-2.1,4.1c-0.6,2.2-0.6,4,0,5.5L26.9,50.8z"/>
	</g>
	<g>
		<path class="st0" d="M7.3,30.5c-0.6-2.4-0.8-4.9-0.8-7.4c0-0.4,0-0.7,0-1.1c0-1.9,0.1-3.9-0.7-5.4c-0.4-0.8-1-1.4-1.7-1.7l0.8-1.8
			c1.1,0.5,2.1,1.4,2.7,2.6c1.1,2,1,4.2,1,6.3c0,0.3,0,0.7,0,1c0,2.3,0.2,4.6,0.8,6.9L7.3,30.5z"/>
	</g>
	<g>
		<path class="st0" d="M44.8,32.8l-1.9-0.6c0.9-3,1.4-6.2,1.4-9.3l0-0.4c0-1.2,0-2.6,0.6-3.9c0.4-0.9,1.1-1.7,2.1-2.5
			c0.3-0.3,0.7-0.5,1-0.7l1.1,1.7c-0.3,0.2-0.6,0.4-0.9,0.6c-0.8,0.6-1.3,1.1-1.5,1.7c-0.4,0.8-0.4,1.9-0.4,3l0,0.4
			C46.3,26.3,45.8,29.6,44.8,32.8z"/>
	</g>
	<g>
		<g>
			<path class="st0" d="M20.5,33.2l-0.9-0.4c0.9-2.3,3.1-4,5.2-5.7c1-0.8,2.1-1.6,2.9-2.5c3.4-3.3,5.2-6.2,5.7-8.7l1,0.2
				c-0.5,2.7-2.4,5.7-6,9.2c-0.9,0.9-2,1.7-3,2.5C23.4,29.5,21.3,31.2,20.5,33.2z"/>
		</g>
		<g>
			<path class="st0" d="M23.2,29.7L23,28.9l-0.4,0.2c-1.4-2.7-2.6-5.8-0.9-8.6c1.2-1.9,3.6-3.2,5.8-4.5c0.3-0.2,0.7-0.4,1-0.6
				l0.5-0.3c2.3-1.3,4.4-2.5,4.6-6.2l0.9-0.2c1.7,2.7,2.7,5.2,3.1,7.7c0.3,2.4-0.1,4.6-1.4,6.4C34.1,26.4,29.5,28.7,23.2,29.7z
				 M34.6,10.6c-0.7,3.2-2.8,4.4-4.9,5.6l-0.5,0.3c-0.3,0.2-0.7,0.4-1,0.6c-2.2,1.2-4.4,2.4-5.5,4.1c-1.5,2.3-0.5,5,0.9,7.5
				c5.8-1,10-3.2,12.1-6.2c1.1-1.6,1.5-3.6,1.2-5.8C36.5,14.6,35.8,12.7,34.6,10.6z"/>
		</g>
	</g>
</g>
</svg>
