<?xml version="1.0" encoding="utf-8"?>
<!-- Generator: Adobe Illustrator 19.2.1, SVG Export Plug-In . SVG Version: 6.00 Build 0)  -->
<svg version="1.1" id="Layer_1" xmlns="http://www.w3.org/2000/svg" xmlns:xlink="http://www.w3.org/1999/xlink" x="0px" y="0px"
	 viewBox="0 0 52.3 52.3" style="enable-background:new 0 0 52.3 52.3;" xml:space="preserve">
<style type="text/css">
	.st0{fill:#A41F35;}
</style>
<g>
	<g>
		<path class="st0" d="M26.1,52.3C11.7,52.3,0,40.6,0,26.1C0,11.7,11.7,0,26.1,0c14.4,0,26.1,11.7,26.1,26.1
			C52.3,40.6,40.6,52.3,26.1,52.3z M26.1,3C13.4,3,3,13.4,3,26.1c0,12.8,10.4,23.1,23.1,23.1c12.8,0,23.1-10.4,23.1-23.1
			C49.3,13.4,38.9,3,26.1,3z"/>
	</g>
	<g>
		<path class="st0" d="M15.7,35.8c-2.1,0-4.2-0.6-5.9-1.8l1.2-1.6c2.8,1.9,6.8,2,9.5,0l1.1,1.6C19.9,35.2,17.8,35.8,15.7,35.8z"/>
	</g>
	<g>
		<path class="st0" d="M37.2,35.7c-2.1,0-4.2-0.5-6-1.6l1-1.7c2.9,1.7,6.8,1.8,9.7,0.1l1,1.7C41.2,35.2,39.2,35.7,37.2,35.7z"/>
	</g>
	<g>
		<path class="st0" d="M38.4,14.5c-2.9,0-7-0.1-7.9-0.9c-0.4-0.3-0.6-0.6-0.9-1c-0.1-0.1-0.2-0.3-0.3-0.4c-0.7-0.9-2-1.4-3.4-1.3
			c-1.5,0.1-2.8,0.8-3.5,1.9c-0.2,0.3-0.4,0.6-0.7,0.8c-0.4,0.2-0.8,0.2-1.1,0.2l-8.7,0l0-1l8.7,0c0.2,0,0.4,0,0.6-0.1
			c0.1-0.1,0.2-0.2,0.3-0.4l0.1-0.1c0.9-1.4,2.5-2.3,4.3-2.4c1.7-0.1,3.3,0.5,4.2,1.6c0.1,0.2,0.2,0.3,0.4,0.5
			c0.2,0.3,0.4,0.6,0.7,0.8c0.8,0.6,6.3,0.7,9.9,0.6l0,1C40.5,14.4,39.6,14.5,38.4,14.5z"/>
	</g>
	<g>
		<path class="st0" d="M26.4,42.8l-1,0c0-3.6,0.1-7.8,0.1-11.9c0-4.2,0.1-8.3,0.1-11.9l1,0c0,3.6-0.1,7.8-0.1,11.9
			C26.5,35,26.4,39.2,26.4,42.8z"/>
	</g>
	<g>
		<path class="st0" d="M15.3,30.9c-1.6,0-3.3-0.5-4.7-1.3l0.5-0.8c1.6,1,3.5,1.4,5.3,1.1c0.9-0.1,1.5-0.4,2-0.8
			c0.9-0.9,0.9-2.5,0-3.7c-0.9-1.1-2.4-1.7-4-1.6l-0.3,0c-0.4,0-0.9,0.1-1.3,0c-0.7-0.1-1.4-0.7-1.4-1.4c0-0.3,0.1-0.6,0.3-1
			c0.9-1.4,3-1.9,4.6-1.1l-0.5,0.9c-1.1-0.6-2.6-0.3-3.3,0.7c-0.1,0.2-0.2,0.3-0.1,0.4c0,0.2,0.3,0.4,0.6,0.5c0.3,0.1,0.7,0,1,0
			l0.4,0c1.9-0.2,3.8,0.6,4.9,1.9c1.3,1.6,1.2,3.8-0.1,5c-0.6,0.5-1.4,0.9-2.5,1.1C16.2,30.9,15.8,30.9,15.3,30.9z"/>
	</g>
	<g>
		<polygon class="st0" points="40.3,26.7 34.2,26.6 34.1,26.1 34.2,25.6 40.3,25.7 		"/>
	</g>
	<g>
		
			<rect x="36" y="26.3" transform="matrix(1.340026e-002 -0.9999 0.9999 1.340026e-002 7.2229 64.9111)" class="st0" width="1" height="5"/>
	</g>
	<g>
		<path class="st0" d="M37.5,31.7l-1,0c0-2.3,0-3.9-0.1-6.1l0-1.1l1,0l0,1.1C37.5,27.7,37.5,29.3,37.5,31.7z"/>
	</g>
	<g>
		<path class="st0" d="M13.5,32c-0.2-4.7-0.1-9.6,0.4-14.2l1,0.1c-0.5,4.5-0.7,9.3-0.4,14L13.5,32z"/>
	</g>
	<g>
		<path class="st0" d="M16.2,32.3c-0.3-4.7-0.4-9.5-0.1-14.3l1,0c-0.2,4.7-0.2,9.5,0.1,14.2L16.2,32.3z"/>
	</g>
	<g>
		<path class="st0" d="M18.1,21.8c-0.3,0-0.5,0-0.7-0.1c-0.5-0.1-1-0.3-1.5-0.5l0.5-0.9c0.4,0.2,0.8,0.4,1.2,0.5
			c0.3,0.1,0.6,0.1,0.8,0c0.2,0,0.3-0.2,0.3-0.3l1,0.2c-0.1,0.5-0.5,0.9-1,1.1C18.5,21.7,18.3,21.8,18.1,21.8z"/>
	</g>
	<g>
		<path class="st0" d="M36.9,25.2l-0.4-0.5c-1.7-1.9-3.4-3.8-5-5.6l0.8-0.7c1.5,1.7,3,3.5,4.6,5.2c1.2-1.7,2.5-3.5,4-5l0,0l0.5-0.4
			l0.7,0.7c-1.8,1.7-3.2,3.8-4.6,5.8L36.9,25.2z"/>
	</g>
	<g>
		<path class="st0" d="M24.1,44.4c-5,0-10.1-0.1-15.1-0.4l0.1-2c11.4,0.7,22.9,0.6,34.3-0.3l0.2,2C37.2,44.1,30.6,44.4,24.1,44.4z"
			/>
	</g>
	<g>
		<path class="st0" d="M26,17.1c-1.2,0-2.2-1-2.2-2.2c0-1.2,1-2.2,2.2-2.2c1.2,0,2.2,1,2.2,2.2C28.2,16.1,27.3,17.1,26,17.1z
			 M26,13.7c-0.7,0-1.2,0.5-1.2,1.2c0,0.7,0.5,1.2,1.2,1.2c0.7,0,1.2-0.5,1.2-1.2C27.2,14.2,26.7,13.7,26,13.7z"/>
	</g>
</g>
</svg>
