<?xml version="1.0" encoding="utf-8"?>
<!-- Generator: Adobe Illustrator 19.2.1, SVG Export Plug-In . SVG Version: 6.00 Build 0)  -->
<svg version="1.1" id="Layer_1" xmlns="http://www.w3.org/2000/svg" xmlns:xlink="http://www.w3.org/1999/xlink" x="0px" y="0px"
	 viewBox="0 0 52.3 52.3" style="enable-background:new 0 0 52.3 52.3;" xml:space="preserve">
<style type="text/css">
	.st0{fill:#454E75;}
</style>
<g>
	<g id="New_Symbol_2_">
		<g id="earth_2_">
			<g>
				<path class="st0" d="M26.1,52.3C11.7,52.3,0,40.6,0,26.1C0,11.7,11.7,0,26.1,0s26.1,11.7,26.1,26.1
					C52.3,40.6,40.6,52.3,26.1,52.3z M26.1,3C13.4,3,3,13.4,3,26.1c0,12.8,10.4,23.1,23.1,23.1c12.8,0,23.1-10.4,23.1-23.1
					C49.3,13.4,38.9,3,26.1,3z"/>
			</g>
			<g>
				<path class="st0" d="M29.9,46.6c-0.1,0-0.1,0-0.2,0c-0.4-0.1-0.7-0.3-0.9-0.5L26.5,44c-0.3-0.3-0.8-0.7-1.1-1.3
					c-0.3-0.6-0.2-1.2-0.2-1.7l0.3-6.7c0-0.7,0-1.5-0.3-1.8c-0.9-0.7-2-1.1-3.1-1.4c-1.3-0.4-2.6-0.8-3.7-1.8s-2.4-3-2.5-5
					c-0.1-1.2,0.3-2.2,1-2.9c1.6-1.7,3.6-2.6,5.6-3.5c0.7-0.3,1.5-0.7,2.2-1c0.3-0.1,0.7-0.4,1.3-0.3c1,0.2,1.4,1.1,1.6,1.6
					c0,0,0,0.1,0.1,0.2l2.2-0.8l0.5,0.6c1.7,2.2,4.5,3.5,7.4,3.4c1.1,0,2.3-0.5,2.5-1.3s-0.7-1.7-1-2c-2.6-2.5-6.8-3.3-10.2-2
					l-0.5,0.2L28,16.1c-2.8-1.7-4-2.4-4.5-2.7l0,0c-0.7,0.2-1.2,0.3-1.6,0.1l-1.1-0.3l0.5-1.1c0.2-0.3,0.3-0.8,0.4-1.2
					c0.3-1,0.6-2.1,1.6-2.9c0.9-0.7,2.1-1,3.2-1.1c1.2-0.2,2.3-0.3,3.5-0.3c-0.3-0.5-0.7-1.1-1.2-1.6c-0.3-0.4-0.7-0.8-1-1.2
					c-0.1-0.2-0.3-0.5-0.4-0.9C27.3,2,28,1.6,28.3,1.3c0.1-0.1,0.2-0.1,0.2-0.2c0,0-0.1,0.1-0.1,0.2l2,0.2v0.4h-0.1
					c-0.2,0.4-0.5,0.7-0.8,0.9c0.2,0.3,0.4,0.5,0.7,0.8c0.9,1,1.9,2.2,2,3.8l0.1,1.1h-1.1c-1.5,0-3,0.1-4.5,0.3
					C25.9,9,25,9.1,24.4,9.6c-0.4,0.3-0.6,1-0.8,1.7c0.2,0,0.4,0,0.7,0.1l4.4,2.7c4-1.4,8.7-0.4,11.8,2.6c1.3,1.3,1.9,2.6,1.6,3.9
					c-0.4,2-2.6,2.8-4.3,2.9c-3.2,0.1-6.4-1.2-8.5-3.6l-1.8,0.7L27,20.5c-0.9-0.3-1.2-1.1-1.4-1.6c0-0.1,0-0.1-0.1-0.2
					c-0.8,0.4-1.5,0.7-2.3,1.1c-1.8,0.8-3.6,1.6-5,3c-0.3,0.4-0.5,0.8-0.5,1.5c0.1,1.3,1,2.9,1.8,3.6s1.9,1,3,1.4
					c1.3,0.4,2.6,0.8,3.8,1.8c1.2,1,1.1,2.6,1,3.4L27,41.2c0,0.3,0,0.6,0.1,0.8s0.3,0.4,0.6,0.6l2.1,1.9c2.3-1.6,5-4.1,5.8-6.5
					c0.2-0.7,0.3-1.4,0.3-2c0.1-1.2,0.1-2.7,1.8-3.7c-0.4-0.6-0.7-1.2-1-1.7l1.8-0.9c0.4,0.8,0.9,1.6,1.5,2.4l0.8,1.1l-1.3,0.4
					c-1.5,0.5-1.5,1-1.6,2.4c0,0.7-0.1,1.6-0.4,2.6c-1.3,3.8-5.5,6.8-6.7,7.6C30.7,46.3,30.4,46.6,29.9,46.6z"/>
			</g>
			<g>
				<path class="st0" d="M43.5,34.9c-0.1,0-0.2,0-0.3,0c-1.1-0.1-1.3-1-1.5-1.7c-0.2-0.6-0.4-1.6-1.3-3c-0.8-1.4-1.6-2.2-2.4-2.7
					c0,0.7,0.1,1.5,0.5,2.2l-1.8,0.9c-0.8-1.7-0.9-3.6-0.2-5l1.3-0.5c1.8,0.9,3.1,2.1,4.3,4.1c1,1.6,1.3,2.8,1.5,3.5
					c0,0.1,0,0.2,0.1,0.3c0.2,0,0.4-0.1,0.6-0.2c1.1-0.4,3.2-1.4,4.7-3l1.5,1.4c-1.8,1.9-4.1,3-5.4,3.5
					C44.7,34.6,44.1,34.9,43.5,34.9z"/>
			</g>
			<g>
				<path class="st0" d="M8.4,44.7c-0.4,0-0.7-0.2-1-0.5L9,43c-0.1-0.2-0.4-0.3-0.6-0.3c-0.2,0-0.4,0.1-0.4,0.1
					c1.1-3.2,2.2-8.7,0.4-10.3c-0.4-0.4-1-0.6-1.6-0.9c-1.2-0.5-2.5-1.2-2.9-2.6c-0.6-1.9,0.9-4.1,2.2-6.2c0.4-0.7,0.8-1.3,1.1-1.7
					c0,0,0-0.1,0.1-0.2c-0.1-0.1-0.3-0.2-0.5-0.2l-0.2-0.1C5,20,3.8,18.5,3.4,16.9c-0.3-1.7,0.2-3.5,1.4-4.7l4.9-4.8l-3.6,6.5
					L6,13.8c-0.6,0.7-0.9,1.7-0.7,2.6c0.2,1,1,1.9,1.9,2.3l0.1,0.1c0.6,0.2,1.6,0.6,1.8,1.7c0.1,0.6-0.1,1.1-0.3,1.4
					c-0.3,0.6-0.7,1.3-1.2,2c-0.9,1.4-2.3,3.5-2,4.5c0.2,0.6,0.8,0.9,1.9,1.4C8.2,30.1,9,30.5,9.6,31c3.3,3,0.7,10.9,0.2,12.5
					c-0.2,0.5-0.6,1.1-1.3,1.2C8.6,44.7,8.5,44.7,8.4,44.7z"/>
			</g>
			<g>
				<path class="st0" d="M22.3,50.9c-1.6,0-3-1-4.2-2.8c-0.3-0.4-0.5-0.9-0.7-1.3C17,46,16.6,45.2,16,44.6c-0.2-0.2-0.3-0.3-0.4-0.3
					c-0.2,0-0.5,0.2-0.6,0.5c-0.2,0.5-0.1,1.2-0.1,1.8l-2,0.2c0-0.8-0.1-1.8,0.2-2.8c0.4-1.1,1.7-2,3-1.7c0.6,0.2,1.1,0.6,1.3,0.9
					c0.8,0.8,1.2,1.7,1.7,2.6c0.2,0.4,0.4,0.8,0.7,1.2c0.4,0.6,1.3,1.9,2.5,1.9L22.3,50.9z"/>
			</g>
		</g>
	</g>
</g>
</svg>
