<?xml version="1.0" encoding="utf-8"?>
<!-- Generator: Adobe Illustrator 19.2.1, SVG Export Plug-In . SVG Version: 6.00 Build 0)  -->
<svg version="1.1" id="Layer_1" xmlns="http://www.w3.org/2000/svg" xmlns:xlink="http://www.w3.org/1999/xlink" x="0px" y="0px"
	 viewBox="0 0 52.3 52.3" style="enable-background:new 0 0 52.3 52.3;" xml:space="preserve">
<style type="text/css">
	.st0{fill:#454E75;}
</style>
<g>
	<g>
		<path class="st0" d="M26.1,52.3C11.7,52.3,0,40.6,0,26.1C0,11.7,11.7,0,26.1,0s26.1,11.7,26.1,26.1C52.3,40.6,40.6,52.3,26.1,52.3
			z M26.1,3C13.4,3,3,13.4,3,26.1c0,12.8,10.4,23.1,23.1,23.1c12.8,0,23.1-10.4,23.1-23.1C49.3,13.4,38.9,3,26.1,3z"/>
	</g>
	<g>
		<path class="st0" d="M23.4,37.3l0.4-3.6C25,23.4,19.2,12.4,10,7.5l1-1.8c9.1,4.8,15.1,15.2,15,25.4c3.3-2.7,8-3.8,12.3-2.8
			c1.3,0.3,2.3,0.8,3.2,1.5c0.9-3.4,0.2-7.6-1.7-11.1c-2.6-4.7-7-8.4-12.4-10.7C23.5,6.4,19,5.6,14.2,5.6v-2c5.1,0,9.8,0.9,13.9,2.6
			c5.9,2.4,10.6,6.5,13.4,11.5c2.6,4.7,3.1,10.2,1.3,14.4L42,33.9l-1-1.7c-0.7-1.2-2.3-1.7-3.2-2c-4.5-1.1-9.6,0.6-12.2,4.1
			L23.4,37.3z"/>
	</g>
	<g>
		<path class="st0" d="M29.5,51.5l-0.8-1.8c4-1.7,7.9-4.8,9.9-7.1c2-2.3,3.5-5.1,4.1-7.8C32.5,36,23.4,40.5,16.4,48.1L15,46.7
			c7.6-8.2,17.6-13.1,28.9-14l1.2-0.1L45,33.8c-0.3,3.4-2.1,7.1-4.7,10.1C37.5,46.9,33.3,49.9,29.5,51.5z"/>
	</g>
</g>
</svg>
