<?xml version="1.0" encoding="utf-8"?>
<!-- Generator: Adobe Illustrator 19.2.1, SVG Export Plug-In . SVG Version: 6.00 Build 0)  -->
<svg version="1.1" id="Layer_1" xmlns="http://www.w3.org/2000/svg" xmlns:xlink="http://www.w3.org/1999/xlink" x="0px" y="0px"
	 viewBox="0 0 52.3 52.3" style="enable-background:new 0 0 52.3 52.3;" xml:space="preserve">
<style type="text/css">
	.st0{fill:#454E75;}
</style>
<g>
	<g>
		<g>
			<path class="st0" d="M26.1,52.3C11.7,52.3,0,40.6,0,26.1C0,11.7,11.7,0,26.1,0s26.1,11.7,26.1,26.1
				C52.3,40.6,40.6,52.3,26.1,52.3z M26.1,3C13.4,3,3,13.4,3,26.1c0,12.8,10.4,23.1,23.1,23.1c12.8,0,23.1-10.4,23.1-23.1
				C49.3,13.4,38.9,3,26.1,3z"/>
		</g>
		<g>
			<path class="st0" d="M9.3,43.1c-1,0-1.9-0.2-2.5-0.6l1.1-1.7c0.7,0.5,3.1,0.1,4.2,0c0.3,0,0.5-0.1,0.7-0.1
				c1.9-0.2,3.8-0.7,5.6-1.3c3.7-1.3,7.2-3.4,9.9-6.1c4.1-3.9,6.8-9.3,7.8-15l2,0.3c-1,6.1-4,11.8-8.3,16.1c-3,2.9-6.7,5.2-10.7,6.6
				c-2,0.7-4,1.2-6.1,1.4c-0.2,0-0.4,0.1-0.7,0.1C11.3,43,10.2,43.1,9.3,43.1z"/>
		</g>
		<g>
			<rect x="16.1" y="44.2" class="st0" width="1" height="3.8"/>
		</g>
		<g>
			<rect x="19.9" y="42.8" class="st0" width="1" height="6.7"/>
		</g>
		<g>
			<rect x="24" y="40.5" class="st0" width="1" height="10"/>
		</g>
		<g>
			<rect x="28.6" y="37.3" class="st0" width="1" height="13.4"/>
		</g>
		<g>
			<rect x="32.6" y="33.9" class="st0" width="1" height="14.3"/>
		</g>
		<g>
			<rect x="37.2" y="26.2" class="st0" width="1" height="22.1"/>
		</g>
		<g>
			<path class="st0" d="M14.4,26.9c-2.3,0-4.9-0.2-6.9-0.5l0.1-1c5.7,0.8,11.6,0.5,12.4-0.4c0.6-0.7,2.2-0.9,4.7-1.1
				c1.2-0.1,2.9-0.3,3.4-0.5c-0.2-0.4-1.7-0.7-2.8-0.8c-0.4,0-0.9-0.1-1.3-0.1l0.1-1h0.2c0.4,0,0.8,0.1,1.3,0.1c2.7,0.2,5,0.2,8-0.3
				l0.2,1c-1.8,0.3-3.3,0.4-4.8,0.4c0.2,0.2,0.3,0.4,0.3,0.7c0,1.1-1.7,1.2-4.3,1.5c-1.6,0.1-3.7,0.4-4.1,0.8
				C19.9,26.6,17.3,26.9,14.4,26.9z"/>
		</g>
		<g>
			<path class="st0" d="M39,22.2v-1c2.1,0,4.2-0.1,6.3-0.2v1C43.3,22.1,41.1,22.2,39,22.2z"/>
		</g>
	</g>
	<g>
		<path class="st0" d="M34.5,18.7c1.9-5,2.3-11.5,2.3-11.5s2.8,7.1,3.3,12.1l-3,0.1L34.5,18.7z"/>
	</g>
</g>
</svg>
