<?xml version="1.0" encoding="utf-8"?>
<!-- Generator: Adobe Illustrator 19.2.1, SVG Export Plug-In . SVG Version: 6.00 Build 0)  -->
<svg version="1.1" id="Layer_1" xmlns="http://www.w3.org/2000/svg" xmlns:xlink="http://www.w3.org/1999/xlink" x="0px" y="0px"
	 viewBox="0 0 52.3 52.3" style="enable-background:new 0 0 52.3 52.3;" xml:space="preserve">
<style type="text/css">
	.st0{fill:#454E75;}
	.st1{fill:#454E75;stroke:#FFFFFF;stroke-width:2;stroke-miterlimit:10;}
</style>
<g>
	<g>
		<path class="st0" d="M26.1,52.3C11.7,52.3,0,40.6,0,26.1C0,11.7,11.7,0,26.1,0s26.1,11.7,26.1,26.1C52.3,40.6,40.6,52.3,26.1,52.3
			z M26.1,3C13.4,3,3,13.4,3,26.1c0,12.8,10.4,23.1,23.1,23.1c12.8,0,23.1-10.4,23.1-23.1C49.3,13.4,38.9,3,26.1,3z"/>
	</g>
	<g>
		<path class="st0" d="M14.5,48.5c-2.9-4.9-5.3-14.8-5.4-15.3l-0.3-1.5l1.5,0.2c0.1,0,13.8,2.2,20.7,1.5l1.7-0.2L32,34.9
			c-0.2,0.5-0.4,1.1-0.6,1.6c-0.3,0.7-0.5,1.4-0.9,2.2c5-1.3,12.2-4,14.5-4.8c-0.3-2.5-1.3-10.4-3.5-15.2c-0.1,0.2-0.3,0.4-0.4,0.6
			c-0.5,0.7-0.9,1.4-1.2,2.1l-0.6,1.3l-1-1C33.8,17,29,12.6,23.9,8.6l-1.4-1.2l1.8-0.6C29.7,5.1,37,4.9,41.9,6.4l-0.6,1.9
			C37.2,7,31.4,7,26.6,8.2c4.2,3.5,8.3,7.2,12.1,11.1c0.2-0.4,0.4-0.7,0.7-1.1c0.5-0.7,0.9-1.4,1.2-2.1l0.8-1.6l0.9,1.5
			c3.4,5.6,4.7,18,4.7,18.5l0.1,0.8l-0.7,0.3c-0.5,0.2-11.8,4.6-17.5,5.7l-2.1,0.4l1.1-1.9c0.7-1.3,1.2-2.6,1.7-3.8
			c0-0.1,0.1-0.1,0.1-0.2c-5.9,0.3-14.6-0.9-18.1-1.4c0.8,3,2.7,9.7,4.8,13.2L14.5,48.5z"/>
	</g>
	<g>
		<path class="st1" d="M31.5,50.2"/>
	</g>
	<g>
		<path class="st1" d="M22.1,50.5"/>
	</g>
	<g>
		<path class="st0" d="M6,27.3l0.1-1.2c0-0.1,0.2-1.8,0.5-3.5C5,22.8,2.7,23,1.8,22.9l0.2-2c0.8,0.1,4-0.2,5.8-0.5l1.5-0.2L9,21.6
			C8.7,22.7,8.4,24,8.3,25c4.4-0.4,14.4-0.8,19.7-0.7c-4.1-6.8-7.8-11.8-10.6-14.5c-1.6,0.9-2.2,1.5-2.2,1.5l-0.5,0.6L14,11.6
			c-0.4-0.2-3.8-2.2-4.8-2.9L10.4,7c0.6,0.5,2.7,1.7,3.9,2.4c0.5-0.4,1.4-1,2.7-1.7l0.6-0.3l0.5,0.4c3.2,2.8,7.7,8.8,12.5,17l1,1.6
			l-1.9-0.1C24.9,26,11,26.6,7.3,27L6,27.3z"/>
	</g>
</g>
</svg>
