<?xml version="1.0" encoding="utf-8"?>
<!-- Generator: Adobe Illustrator 19.2.1, SVG Export Plug-In . SVG Version: 6.00 Build 0)  -->
<svg version="1.1" id="Layer_1" xmlns="http://www.w3.org/2000/svg" xmlns:xlink="http://www.w3.org/1999/xlink" x="0px" y="0px"
	 viewBox="0 0 52.3 52.3" style="enable-background:new 0 0 52.3 52.3;" xml:space="preserve">
<style type="text/css">
	.st0{fill:#A41F35;}
</style>
<g>
	<g>
		<path class="st0" d="M26.1,52.3C11.7,52.3,0,40.6,0,26.1C0,11.7,11.7,0,26.1,0c14.4,0,26.1,11.7,26.1,26.1
			C52.3,40.6,40.6,52.3,26.1,52.3z M26.1,3C13.4,3,3,13.4,3,26.1c0,12.8,10.4,23.1,23.1,23.1c12.8,0,23.1-10.4,23.1-23.1
			C49.3,13.4,38.9,3,26.1,3z"/>
	</g>
	<g>
		<path class="st0" d="M12.1,46.9l0-1c8.5-0.4,21-0.8,28.4-0.6l0,1C33.1,46.1,20.6,46.5,12.1,46.9z"/>
	</g>
	<g>
		<path class="st0" d="M36.5,35.1l-0.6-0.8c0.8-0.6,1.3-1.7,1.6-3.4c0.4-1.8,0.1-3.1-1-4.7c-1.1-1.8-3.1-3.8-5.4-5.4l0.6-0.8
			c2.4,1.7,4.5,3.8,5.7,5.7c1.2,1.9,1.5,3.5,1.1,5.5C38.1,33.1,37.4,34.4,36.5,35.1z"/>
	</g>
	<g>
		<path class="st0" d="M28.8,24.4L28,23.8l7.6-11.7c0.6-0.9,1.1-1.8,1.5-2.7c0.1-0.2,0.1-0.3,0.1-0.3c0,0-0.2-0.1-0.2-0.2l-3.4-2.2
			c-2.7,4.1-5.4,8.4-8,12.7L24.8,19c2.6-4.4,5.4-8.8,8.3-13.1l0.3-0.4l4.2,2.7c0.2,0.1,0.5,0.3,0.6,0.7c0.1,0.4,0,0.7-0.1,1
			c-0.4,1.1-1,2-1.6,2.9L28.8,24.4z"/>
	</g>
	<g>
		<path class="st0" d="M27.7,36c-3.6-2.3-7.7-4.1-10.4-5.1l-0.7-0.3c-1.5-0.5-3-1.1-4.3-2c-0.4-0.3-0.5-0.4-0.7-1.1l-0.1-0.2
			l0.9-0.3l0.1,0.2c0.2,0.5,0.2,0.5,0.3,0.6c1.2,0.9,2.7,1.4,4.1,1.9l0.7,0.3c2.8,1.1,6.9,2.9,10.6,5.2L27.7,36z"/>
	</g>
	<g>
		<path class="st0" d="M12.1,46.9c-0.8-0.9-0.4-4,0.4-4.8c0.6-0.7,1.5-0.9,2.2-1c2.4-0.5,4.6-0.6,7-0.7c0.8,0,1.7-0.1,2.5-0.2
			l-0.3-1.4l2-0.4l0.4,2.1c0,0.1,0.1,0.5-0.1,0.8c-0.2,0.4-0.6,0.7-1,0.7c-1.2,0.1-2.3,0.2-3.4,0.2c-2.3,0.1-4.5,0.3-6.7,0.7
			c-0.4,0.1-0.8,0.2-1.1,0.4c-0.2,0.4-0.3,1.9-0.2,2.3c0,0,0-0.1-0.1-0.1L12.1,46.9z"/>
	</g>
	<g>
		<path class="st0" d="M31.6,32.7l-2-0.3c0.1-0.7,0.5-1.5,0.8-2.2c0.3-0.7,0.7-1.5,0.6-1.9c-0.1-0.5-0.4-1-1-1.7
			c-0.7-0.7-2-2-2.8-2.5l1.1-1.7c0.9,0.6,2.4,2,3.2,2.8c0.6,0.6,1.2,1.5,1.5,2.6c0.2,1.1-0.3,2.1-0.8,3.2
			C32,31.7,31.7,32.2,31.6,32.7z"/>
	</g>
	<g>
		<path class="st0" d="M22.4,28.6L21.6,28c0.7-0.9,1.2-1.8,1.8-2.7l0,0l0.2-0.3l0.8,0.5C23.8,26.6,23.2,27.6,22.4,28.6z"/>
	</g>
	<g>
		<path class="st0" d="M27.4,24.6c-1.9-2.8-3.8-5.6-5.7-8.4l1.7-1.1c1.8,2.7,3.7,5.4,5.5,8.2l0.1,0l0.2,0.4L27.4,24.6z"/>
	</g>
	<g>
		<path class="st0" d="M16.6,19.5l-0.1-1c1.3-0.1,3.2-0.4,4.4-0.6l0.2,1C19.5,19.2,17.2,19.5,16.6,19.5z"/>
	</g>
	<g>
		<path class="st0" d="M25.5,25.8c-2.1-0.5-4.1-1.2-6.1-2c-0.1-0.1-0.4-0.2-0.5-0.4c-0.2-0.3-0.2-0.7-0.2-0.9l0.5-7.4l1,0.1
			l-0.5,7.4c0,0,0,0.2,0,0.2c0,0,0.1,0,0.1,0c1.9,0.8,3.9,1.5,5.9,2L25.5,25.8z"/>
	</g>
	<g>
		<path class="st0" d="M26.3,33.5l-1,0c0-0.7,0-1.5-0.5-1.8c-0.3-0.2-0.8-0.2-1.2-0.2c-0.9,0-1.7-0.1-2.4-0.3c-1-0.3-1.7-1-2-1.7
			l0.9-0.4c0.2,0.5,0.7,0.9,1.4,1.2c0.6,0.2,1.3,0.2,2.1,0.3c0.5,0,1.2,0,1.7,0.4C26.3,31.4,26.3,32.5,26.3,33.5z"/>
	</g>
	<g>
		<rect x="32.9" y="9.8" transform="matrix(0.5496 -0.8354 0.8354 0.5496 5.2306 33.1904)" class="st0" width="1" height="3.9"/>
	</g>
	<g>
		<path class="st0" d="M24,39.4c-0.2-0.8-0.2-1.5,0-2.1c0.4-1,1.5-1.4,1.8-1.5c0.2-0.1,0.3-0.1,0.4-0.2c0.3-0.1,0.7-0.3,1.2-0.4
			l0.3,0l0.2,0.1c0.2,0.1,0.4,0.3,0.5,0.4c-0.2-0.2-0.6-0.4-1-0.2l0.4,0.9l1-0.1l-0.6,1c-0.1,0.1-0.5,0.2-0.8,0
			c-0.1,0-0.1,0.1-0.2,0.1c-0.2,0.1-0.4,0.2-0.6,0.3c-0.4,0.1-0.6,0.3-0.6,0.4c0,0.1-0.1,0.3,0.1,0.7L24,39.4z"/>
	</g>
	<g>
		<path class="st0" d="M41.6,44.4c-0.1,0-0.3,0-0.5-0.2l-5.5-6.1l0.7-0.7l5.4,6l0.1,0l0.2,0.5l-0.4,0.4
			C41.7,44.4,41.7,44.4,41.6,44.4z"/>
	</g>
	<g>
		<path class="st0" d="M32.1,41.1c-2.9,0-5.2-2.3-5.2-5.2c0-2.9,2.3-5.2,5.2-5.2c2.9,0,5.2,2.3,5.2,5.2
			C37.3,38.8,34.9,41.1,32.1,41.1z M32.1,32.7c-1.8,0-3.2,1.4-3.2,3.2c0,1.8,1.4,3.2,3.2,3.2c1.8,0,3.2-1.4,3.2-3.2
			C35.3,34.2,33.8,32.7,32.1,32.7z"/>
	</g>
</g>
</svg>
