<?xml version="1.0" encoding="utf-8"?>
<!-- Generator: Adobe Illustrator 19.2.1, SVG Export Plug-In . SVG Version: 6.00 Build 0)  -->
<svg version="1.1" id="Layer_1" xmlns="http://www.w3.org/2000/svg" xmlns:xlink="http://www.w3.org/1999/xlink" x="0px" y="0px"
	 viewBox="0 0 52.3 52.3" style="enable-background:new 0 0 52.3 52.3;" xml:space="preserve">
<style type="text/css">
	.st0{fill:#A41F35;}
</style>
<g>
	<g>
		<path class="st0" d="M26.1,52.3C11.7,52.3,0,40.6,0,26.1C0,11.7,11.7,0,26.1,0c14.4,0,26.1,11.7,26.1,26.1
			C52.3,40.6,40.6,52.3,26.1,52.3z M26.1,3C13.4,3,3,13.4,3,26.1c0,12.8,10.4,23.1,23.1,23.1c12.8,0,23.1-10.4,23.1-23.1
			C49.3,13.4,38.9,3,26.1,3z"/>
	</g>
	<g>
		<path class="st0" d="M7.5,43.8l-0.7-1.9C19.1,37.4,32.7,37,44.1,41l-0.7,1.9C32.5,39.1,19.4,39.4,7.5,43.8z"/>
	</g>
	<g>
		<path class="st0" d="M18.1,36.3c0-0.6,0-1.1-0.1-1.6c-0.1-1.5-0.1-2.4-0.4-4.4l2-0.3c0.3,2.2,0.3,3.1,0.4,4.6c0,0.4,0,1,0.1,1.6
			L18.1,36.3z"/>
	</g>
	<g>
		
			<rect x="23.1" y="11.4" transform="matrix(0.9992 -4.074648e-002 4.074648e-002 0.9992 -0.9957 1.0033)" class="st0" width="2" height="27.1"/>
	</g>
	<g>
		
			<rect x="21.2" y="11.5" transform="matrix(0.999 -4.451185e-002 4.451185e-002 0.999 -1.0912 1.0144)" class="st0" width="2" height="27.1"/>
	</g>
	<g>
		<path class="st0" d="M12.7,40.2c-0.2-1.6,1.1-3,2.4-3.8c3.5-2,8.1-1.5,10.5,1.3L24.2,39c-1.8-2-5.4-2.4-8.1-0.9
			c-0.9,0.5-1.5,1.3-1.5,1.8L12.7,40.2z"/>
	</g>
	<g>
		<path class="st0" d="M4.9,25c-0.8,0-1.6-0.2-2.2-0.6l0.5-0.8c1,0.6,2.4,0.6,3.6,0c1-0.5,1.9-1.4,2.9-2.9c0.1-0.2,0.3-0.5,0.7-0.6
			c0.3-0.1,0.6-0.1,0.8-0.1c1.1,0,2.1-0.2,3-0.7c0.3-0.2,0.8-0.4,1.3-0.2c0.3,0.1,0.5,0.4,0.6,0.5l0.1,0.1c0.3,0.4,0.9,0.7,1.5,0.6
			c0.5-0.1,1-0.5,1.1-1.1l1,0.3c-0.2,0.9-1,1.6-1.9,1.8c-0.9,0.2-1.9-0.2-2.4-1L15.2,20c0-0.1-0.1-0.2-0.2-0.2
			c-0.1,0-0.3,0.1-0.4,0.2c-1.1,0.6-2.3,0.9-3.5,0.9c-0.2,0-0.3,0-0.4,0c-0.1,0-0.2,0.2-0.2,0.3c-0.7,1-1.7,2.4-3.2,3.2
			C6.5,24.8,5.7,25,4.9,25z"/>
	</g>
	<g>
		<path class="st0" d="M27.1,17.1c-0.2,0-0.4,0-0.5,0l0.1-1c1,0.1,2.1-0.2,3-0.9c0.9-0.7,1.4-1.7,1.5-2.7l0-0.1c0-0.3,0.1-0.7,0.3-1
			c0.2-0.3,0.6-0.5,0.8-0.6c1.8-0.9,3.6-1.6,5.5-2.2c0.4-0.1,2.4-1.1,2.6-1.4l0.8,0.6c-0.4,0.5-2.7,1.7-3.2,1.8
			c-1.8,0.5-3.7,1.3-5.4,2.1c-0.2,0.1-0.4,0.2-0.4,0.3c-0.1,0.1-0.1,0.3-0.1,0.5l0,0.1c-0.1,1.3-0.8,2.5-1.9,3.4
			C29.3,16.7,28.2,17.1,27.1,17.1z"/>
	</g>
	<g>
		<path class="st0" d="M32.8,21.4l-0.6-0.8l1.6-1.2c1.1-0.8,2.1-1.6,3.4-1.5c0.9,0,1.6,0.4,2.4,0.8c0.1,0.1,0.3,0.2,0.4,0.2
			c1,0.5,1.7,0.6,2.2,0.3c0.2-0.1,0.5-0.3,0.7-0.5c0.5-0.4,1-0.9,1.8-0.8c0.3,0,0.5,0.1,0.7,0.2c0.1,0,0.1,0.1,0.2,0.1
			c0.5,0.2,1.2,0,1.7-0.4c0.5-0.4,0.8-1.1,0.7-1.6l1-0.2c0.2,0.9-0.2,1.9-1,2.6c-0.8,0.7-1.8,0.9-2.7,0.6c-0.1,0-0.2-0.1-0.2-0.1
			c-0.1-0.1-0.3-0.1-0.4-0.1c-0.3,0-0.6,0.2-1,0.6c-0.3,0.2-0.6,0.5-0.9,0.7c-0.8,0.4-1.9,0.3-3.1-0.3c-0.2-0.1-0.3-0.2-0.5-0.2
			c-0.7-0.3-1.3-0.7-1.9-0.7c-1,0-1.9,0.6-2.8,1.3L32.8,21.4z"/>
	</g>
	<g>
		<path class="st0" d="M34.4,39.1l-2,0c0.1-4.1,0.1-7.4,0-11.5l0-0.2c0-0.1,0-0.3,0-0.3c0,0-0.2-0.1-0.3-0.2L30.9,26l0.4,9.1
			l-1.1-0.1c-0.5,0-1-0.1-1.4-0.2c0.1,1.4,0.2,2.8,0.1,4.1l-2,0c0-1.8-0.1-3.6-0.3-5.3l-0.2-1.6l1.5,0.5c0.4,0.1,0.8,0.3,1.3,0.3
			l-0.4-10.7l4.5,2.9c0.3,0.2,0.7,0.4,0.9,0.9c0.3,0.5,0.3,0.9,0.3,1.3l0,0.2C34.5,31.6,34.5,35,34.4,39.1z"/>
	</g>
	<g>
		<path class="st0" d="M35.5,40.5c0-0.6,0-1.3,0-1.9l0.3-7.3l2,0.1l-0.3,7.3c0,0.6-0.1,1.2,0,1.8L35.5,40.5z"/>
	</g>
</g>
</svg>
