<?xml version="1.0" encoding="utf-8"?>
<!-- Generator: Adobe Illustrator 19.2.1, SVG Export Plug-In . SVG Version: 6.00 Build 0)  -->
<svg version="1.1" id="Layer_1" xmlns="http://www.w3.org/2000/svg" xmlns:xlink="http://www.w3.org/1999/xlink" x="0px" y="0px"
	 viewBox="0 0 52.3 52.3" style="enable-background:new 0 0 52.3 52.3;" xml:space="preserve">
<style type="text/css">
	.st0{fill:#A41F35;}
</style>
<g>
	<g>
		<path class="st0" d="M26.1,52.3C11.7,52.3,0,40.6,0,26.1C0,11.7,11.7,0,26.1,0c14.4,0,26.1,11.7,26.1,26.1
			C52.3,40.6,40.6,52.3,26.1,52.3z M26.1,3C13.4,3,3,13.4,3,26.1c0,12.8,10.4,23.1,23.1,23.1c12.8,0,23.1-10.4,23.1-23.1
			C49.3,13.4,38.9,3,26.1,3z"/>
	</g>
	<g>
		<path class="st0" d="M5.5,40.1l-0.3-2c3.3-0.5,6.7-0.9,10-1L15,27.4c-2.1,0-4.3,0.1-6.4,0.2L5,27.9l2.8-2.1
			c5.7-4.2,11.5-8.5,17.1-12.9c0.1-0.4,0.4-0.8,0.9-0.9c0.5-0.1,1,0.1,1.2,0.6c0.2,0.4,0.2,1.1-0.5,1.6c-4.9,3.8-9.8,7.6-14.8,11.3
			c1.4,0,2.8-0.1,4.2,0l1,0L17.3,39l-1,0C12.7,39.1,9.1,39.5,5.5,40.1z M25.8,13.9c0.2,0,0.3,0.1,0.5,0c0.5-0.1,0.7-0.5,0.6-0.9
			l-0.9,0L25.8,13.9z"/>
	</g>
	<g>
		<path class="st0" d="M25.3,21.1c0-2.7,0-6.3,0-9.7c0-3.4,0-6.9,0-9.6l2,0c0,2.7,0,6.3,0,9.7c0,3.4,0,6.9,0,9.6L25.3,21.1z"/>
	</g>
	<g>
		
			<rect x="22.5" y="25.9" transform="matrix(1.074938e-002 -0.9999 0.9999 1.074938e-002 -1.0512 52.8094)" class="st0" width="7.4" height="2"/>
	</g>
	<g>
		<path class="st0" d="M24.9,51.1c0-5.7,0-9.1,0.1-13.5l0.1-4.6l2,0L27,37.7c-0.1,4.3-0.1,7.8-0.1,13.4L24.9,51.1z"/>
	</g>
	<g>
		<path class="st0" d="M32.1,16.7c-0.1-0.8-0.2-1.6-0.2-2.4l-0.6,0.6l-0.7-0.7l2.3-2.4l0,1.3c0,1.2,0,2.4,0.2,3.5L32.1,16.7z"/>
	</g>
	<g>
		<path class="st0" d="M39.7,24.8c-0.1-0.8-0.2-1.6-0.2-2.4L38.9,23l-0.7-0.7l2.3-2.4l0,1.3c0,1.2,0,2.4,0.2,3.5L39.7,24.8z"/>
	</g>
	<g>
		<path class="st0" d="M31.2,32.7c-0.1-0.8-0.2-1.6-0.2-2.4l-0.6,0.6l-0.7-0.7l2.3-2.4l0,1.3c0,1.2,0,2.4,0.2,3.5L31.2,32.7z"/>
	</g>
	<g>
		<path class="st0" d="M38.8,41c-0.1-0.8-0.2-1.6-0.2-2.4L38,39.2l-0.7-0.7l2.3-2.4l0,1.3c0,1.2,0,2.4,0.2,3.5L38.8,41z"/>
	</g>
	<g>
		<path class="st0" d="M39.4,16.9c-1.3,0-2.4-1.1-2.4-2.4c0-1.3,1.1-2.4,2.4-2.4c1.3,0,2.4,1.1,2.4,2.4
			C41.8,15.9,40.7,16.9,39.4,16.9z M39.4,13.1c-0.8,0-1.4,0.6-1.4,1.4c0,0.8,0.6,1.4,1.4,1.4c0.8,0,1.4-0.6,1.4-1.4
			C40.8,13.7,40.1,13.1,39.4,13.1z"/>
	</g>
	<g>
		<path class="st0" d="M32.6,24.6c-1.3,0-2.4-1.1-2.4-2.4s1.1-2.4,2.4-2.4c1.3,0,2.4,1.1,2.4,2.4S33.9,24.6,32.6,24.6z M32.6,20.8
			c-0.8,0-1.4,0.6-1.4,1.4c0,0.8,0.6,1.4,1.4,1.4c0.8,0,1.4-0.6,1.4-1.4C34,21.4,33.4,20.8,32.6,20.8z"/>
	</g>
	<g>
		<path class="st0" d="M38.3,33.1c-1.3,0-2.4-1.1-2.4-2.4c0-1.3,1.1-2.4,2.4-2.4s2.4,1.1,2.4,2.4C40.8,32,39.7,33.1,38.3,33.1z
			 M38.3,29.3c-0.8,0-1.4,0.6-1.4,1.4c0,0.8,0.6,1.4,1.4,1.4c0.8,0,1.4-0.6,1.4-1.4C39.8,29.9,39.1,29.3,38.3,29.3z"/>
	</g>
	<g>
		<path class="st0" d="M31.7,40.9c-1.3,0-2.4-1.1-2.4-2.4c0-1.3,1.1-2.4,2.4-2.4c1.3,0,2.4,1.1,2.4,2.4C34.1,39.8,33,40.9,31.7,40.9
			z M31.7,37c-0.8,0-1.4,0.6-1.4,1.4c0,0.8,0.6,1.4,1.4,1.4c0.8,0,1.4-0.6,1.4-1.4C33.1,37.7,32.5,37,31.7,37z"/>
	</g>
</g>
</svg>
